<svg xmlns="http://www.w3.org/2000/svg" viewBox="0 0 64 64">
<defs>
  <linearGradient id="g1" x1="0" y1="0" x2="64" y2="64">
    <stop stop-color="#4ea8de"/><stop offset="1" stop-color="#ffd166"/>
  </linearGradient>
</defs>
<circle cx="32" cy="32" r="28" stroke="url(#g1)" stroke-width="3" fill="none"/>
<path d="M20 28c0-6 4-10 12-10s12 4 12 10c0 10-12 18-12 18S20 38 20 28z" fill="url(#g1)"/>
</svg>
<svg xmlns="http://www.w3.org/2000/svg" viewBox="0 0 64 64">
  <defs>
    <linearGradient id="g" x1="0" x2="1" y1="0" y2="1">
      <stop offset="0" stop-color="#5fb2ff"/>
      <stop offset="1" stop-color="#a7d38a"/>
    </linearGradient>
  </defs>
  <rect width="64" height="64" rx="14" fill="#0f1420"/>
  <path d="M18 27c0-4 3-7 7-7 2.7 0 5 1.5 6.3 3.8C32.6 21.5 34.9 20 37.6 20c4 0 7.2 3.2 7.2 7.2 0 9.2-13.5 16-13.5 16S18 36.2 18 27z" fill="url(#g)"/>
  <circle cx="20" cy="18" r="2" fill="#5fb2ff"/>
  <circle cx="44" cy="18" r="2" fill="#a7d38a"/>
  <circle cx="12" cy="30" r="2" fill="#5fb2ff"/>
  <circle cx="52" cy="30" r="2" fill="#a7d38a"/>
  <path d="M20 18v6M44 18v6M12 30h10M52 30H42" stroke="#5fb2ff" stroke-width="2" stroke-linecap="round" opacity=".5"/>
</svg>